<?xml version="1.0" standalone="no"?>
<!DOCTYPE svg PUBLIC "-//W3C//DTD SVG 20010904//EN"
 "http://www.w3.org/TR/2001/REC-SVG-20010904/DTD/svg10.dtd">
<svg version="1.0" xmlns="http://www.w3.org/2000/svg"
 width="615.000000pt" height="615.000000pt" viewBox="0 0 615.000000 615.000000"
 preserveAspectRatio="xMidYMid meet">
<metadata>
Created by potrace 1.14, written by Peter Selinger 2001-2017
</metadata>
<g transform="translate(0.000000,615.000000) scale(0.100000,-0.100000)"
fill="#000000" stroke="none">
<path d="M710 6134 c-110 -48 -146 -151 -138 -399 5 -161 15 -190 74 -210 39
-13 41 -17 49 -97 l6 -71 -35 -29 c-29 -24 -36 -36 -36 -66 0 -41 36 -232 75
-394 32 -136 32 -144 -1 -152 -15 -4 -55 -35 -88 -69 -51 -51 -66 -74 -84
-130 -27 -82 -27 -145 -2 -217 l19 -55 -22 -15 c-53 -37 -86 -74 -117 -132
-29 -54 -35 -75 -38 -148 -3 -69 0 -95 17 -140 18 -48 19 -55 5 -63 -71 -40
-137 -135 -160 -232 -19 -83 -14 -158 16 -239 l21 -56 -34 -58 c-44 -72 -57
-119 -57 -208 0 -84 19 -153 59 -212 l28 -44 -20 -51 c-16 -39 -21 -74 -21
-142 0 -127 26 -189 114 -277 l66 -66 -15 -29 c-12 -21 -16 -57 -16 -143 0
-112 1 -117 36 -190 46 -94 100 -155 178 -200 l61 -35 0 -71 c0 -114 34 -201
115 -296 57 -68 177 -138 234 -138 14 0 20 -10 25 -48 16 -120 130 -278 240
-331 56 -27 140 -51 182 -51 27 0 34 -6 50 -42 10 -24 44 -68 74 -98 94 -96
200 -140 332 -140 l68 0 67 -69 c124 -125 275 -174 433 -140 l51 11 50 -41
c27 -23 79 -56 116 -74 64 -30 74 -32 183 -32 108 0 119 2 180 31 l65 30 63
-29 c50 -23 82 -31 150 -35 139 -7 252 32 344 119 l40 38 62 -16 c174 -44 373
33 473 183 34 51 38 54 77 54 156 0 324 105 400 250 l37 70 59 0 c172 0 254
65 205 160 -18 35 -10 34 -155 35 -63 1 -140 5 -170 9 -74 11 -97 -7 -110 -85
-27 -171 -168 -275 -324 -239 -41 9 -54 8 -84 -7 -30 -15 -41 -29 -60 -80 -56
-148 -227 -215 -366 -142 -22 12 -59 22 -80 22 -42 0 -38 3 -120 -98 -45 -55
-118 -88 -196 -88 -70 0 -109 15 -170 64 -42 36 -103 40 -135 9 -11 -10 -43
-31 -70 -46 -110 -59 -250 -22 -333 88 -54 72 -84 80 -163 46 -70 -30 -164
-30 -229 -1 -55 25 -118 84 -126 121 -11 42 -32 69 -68 86 -31 15 -37 15 -72
-1 -59 -24 -151 -20 -211 10 -79 40 -141 123 -143 192 -1 17 -37 54 -63 64
-14 5 -50 7 -81 4 -75 -8 -133 10 -190 59 -69 59 -90 106 -91 204 -2 121 -30
154 -134 154 -167 0 -295 198 -227 353 14 32 14 41 3 70 -18 43 -34 54 -91 67
-187 42 -269 259 -156 413 55 75 28 150 -63 174 -130 35 -179 196 -94 308 54
70 52 114 -7 169 -57 54 -80 99 -80 161 0 62 30 122 78 159 44 33 69 79 60
109 -4 12 -24 44 -45 70 -43 55 -55 97 -45 164 10 74 85 153 144 153 44 0 89
29 107 69 15 35 16 41 1 69 -9 17 -29 41 -45 54 -60 48 -80 131 -47 199 29 60
62 80 140 88 73 8 110 33 121 82 8 34 -16 84 -48 100 -64 33 -93 91 -83 163 9
56 50 105 99 116 69 15 421 -41 475 -76 39 -25 62 -74 62 -129 -1 -64 -18 -94
-72 -126 -54 -32 -74 -69 -62 -118 7 -29 19 -42 60 -66 70 -41 98 -85 99 -155
0 -47 -5 -62 -32 -100 -57 -77 -37 -140 57 -181 32 -14 58 -34 77 -62 25 -36
28 -49 28 -116 0 -67 -3 -81 -28 -116 -23 -32 -28 -47 -24 -78 7 -48 21 -65
66 -76 20 -5 55 -15 78 -21 82 -21 142 -111 143 -212 0 -51 3 -59 32 -83 29
-24 36 -26 92 -20 78 9 133 -12 181 -68 32 -37 41 -57 59 -139 4 -19 19 -34
46 -48 36 -18 43 -19 72 -6 18 7 46 28 63 45 34 37 106 61 179 61 60 -1 106
-16 160 -53 72 -50 121 -30 171 69 23 45 41 65 87 95 67 43 114 53 192 44 93
-12 126 22 132 136 4 76 20 117 68 167 59 63 162 100 225 81 48 -14 79 -7 114
25 25 23 27 31 27 108 0 46 5 100 11 120 14 52 94 130 150 147 52 16 143 17
182 2 73 -28 127 0 146 74 31 124 134 205 258 205 70 0 121 -22 186 -78 71
-62 120 -55 178 26 37 51 134 102 195 102 68 0 151 -38 199 -92 51 -57 65 -97
65 -186 0 -57 3 -67 29 -93 27 -27 35 -29 103 -29 117 0 189 -43 243 -143 38
-73 35 -148 -10 -238 -56 -112 -47 -141 61 -194 51 -25 82 -49 102 -76 41 -55
66 -139 58 -192 -10 -62 -55 -137 -106 -175 -57 -43 -77 -86 -58 -129 7 -17
33 -46 58 -65 31 -22 54 -52 74 -93 81 -166 -14 -343 -198 -370 -58 -8 -106
-49 -106 -89 0 -15 12 -50 27 -78 67 -128 12 -288 -120 -353 -47 -22 -64 -25
-141 -23 -85 3 -88 2 -112 -25 -19 -22 -24 -39 -24 -80 0 -83 15 -122 54 -141
52 -25 75 -20 115 23 29 31 45 39 86 45 99 13 217 92 286 192 58 85 87 234 65
331 -7 31 -6 33 51 62 79 40 154 120 195 206 31 67 33 76 33 185 0 105 -2 120
-28 175 -15 32 -39 74 -52 91 -14 18 -25 35 -25 37 0 3 18 31 39 63 49 74 71
148 71 238 0 138 -49 247 -151 340 l-60 54 17 58 c48 167 -27 370 -176 472
-67 46 -90 56 -162 71 l-56 12 -6 48 c-15 113 -112 238 -229 296 -163 79 -355
60 -484 -49 l-30 -26 -69 36 c-198 101 -453 22 -577 -179 -28 -47 -31 -48 -66
-42 -58 10 -160 -12 -237 -50 -123 -60 -212 -176 -237 -306 l-11 -57 -50 -6
c-76 -9 -188 -67 -252 -130 -55 -55 -108 -150 -120 -214 -4 -22 -13 -33 -28
-36 -146 -28 -226 -67 -302 -148 l-44 -47 -55 20 c-75 26 -201 25 -275 -2 -30
-11 -62 -22 -70 -25 -10 -3 -23 9 -37 35 -41 72 -152 146 -239 158 -37 5 -48
11 -56 32 -48 124 -105 201 -185 247 l-42 25 6 77 c10 131 -24 226 -114 323
-40 43 -42 48 -33 80 13 44 13 154 0 199 -5 20 -25 61 -44 92 l-34 56 34 67
c30 60 34 76 34 149 0 69 -4 90 -29 141 -16 33 -38 70 -50 82 -11 12 -21 25
-21 28 0 3 40 50 88 104 110 122 267 317 353 436 171 237 229 361 229 490 0
71 -22 114 -79 152 -149 100 -345 23 -667 -264 l-71 -63 -11 27 c-5 16 -24 71
-42 123 -89 266 -227 473 -353 530 -50 23 -119 25 -167 4z"/>
<path d="M987 3403 c-22 -6 -47 -54 -47 -92 0 -17 10 -42 24 -58 19 -22 32
-28 66 -28 34 0 47 6 66 28 67 78 -5 177 -109 150z"/>
<path d="M4739 2751 c-42 -43 -37 -112 10 -148 28 -22 89 -16 116 12 56 55 12
165 -65 165 -22 0 -41 -9 -61 -29z"/>
<path d="M1248 2638 c-25 -27 -29 -37 -23 -67 19 -105 17 -137 -9 -188 -13
-27 -41 -64 -60 -81 -35 -30 -50 -35 -150 -47 -109 -12 -142 -121 -54 -175 41
-25 85 -25 170 -2 122 34 211 109 269 227 52 105 50 272 -3 340 -16 20 -28 25
-65 25 -38 0 -50 -5 -75 -32z"/>
<path d="M2437 2069 c-32 -19 -50 -75 -37 -115 21 -61 112 -83 152 -36 37 42
25 127 -20 151 -26 14 -71 14 -95 0z"/>
<path d="M3674 2070 c-27 -11 -64 -62 -64 -87 0 -52 105 -167 192 -211 80 -39
214 -52 282 -26 10 4 21 -6 35 -34 30 -58 104 -126 179 -163 64 -32 72 -34
182 -34 106 0 119 2 167 27 59 32 73 51 73 103 0 76 -64 103 -164 69 -32 -11
-65 -15 -101 -11 -102 10 -164 63 -195 165 -36 115 -71 132 -176 83 -84 -39
-128 -40 -204 -1 -33 17 -60 34 -60 38 0 5 -17 27 -38 50 -40 43 -64 50 -108
32z"/>
<path d="M1439 1531 c-20 -16 -24 -29 -24 -71 0 -63 26 -90 87 -90 54 0 88 34
88 90 0 56 -34 90 -88 90 -24 0 -49 -8 -63 -19z"/>
<path d="M3497 1169 c-27 -16 -48 -72 -41 -109 8 -36 47 -70 81 -70 66 0 110
59 91 125 -15 56 -81 83 -131 54z"/>
</g>
</svg>
